<?xml version="1.0" encoding="UTF-8" standalone="no"?>
<!-- Generator: Adobe Illustrator 19.0.0, SVG Export Plug-In . SVG Version: 6.00 Build 0)  -->

<svg
   xmlns:dc="http://purl.org/dc/elements/1.1/"
   xmlns:cc="http://creativecommons.org/ns#"
   xmlns:rdf="http://www.w3.org/1999/02/22-rdf-syntax-ns#"
   xmlns:svg="http://www.w3.org/2000/svg"
   xmlns="http://www.w3.org/2000/svg"
   xmlns:sodipodi="http://sodipodi.sourceforge.net/DTD/sodipodi-0.dtd"
   xmlns:inkscape="http://www.inkscape.org/namespaces/inkscape"
   version="1.1"
   id="Capa_1"
   x="0px"
   y="0px"
   viewBox="0 0 199.99998 199.99998"
   xml:space="preserve"
   sodipodi:docname="FlyingKoala_ico.svg"
   width="200"
   height="200"
   inkscape:version="0.92.4 (5da689c313, 2019-01-14)"
   inkscape:export-filename="C:\Users\bradb\Documents\Koalas\FlyingKoala_square.png"
   inkscape:export-xdpi="300"
   inkscape:export-ydpi="300"><metadata
   id="metadata105"><rdf:RDF><cc:Work
       rdf:about=""><dc:format>image/svg+xml</dc:format><dc:type
         rdf:resource="http://purl.org/dc/dcmitype/StillImage" /><dc:title></dc:title></cc:Work></rdf:RDF></metadata><defs
   id="defs103" /><sodipodi:namedview
   pagecolor="#ffffff"
   bordercolor="#666666"
   borderopacity="1"
   objecttolerance="10"
   gridtolerance="10"
   guidetolerance="10"
   inkscape:pageopacity="0"
   inkscape:pageshadow="2"
   inkscape:window-width="2880"
   inkscape:window-height="1675"
   id="namedview101"
   showgrid="false"
   fit-margin-top="0"
   fit-margin-left="0"
   fit-margin-right="0"
   fit-margin-bottom="0"
   inkscape:zoom="5.5156442"
   inkscape:cx="104.4057"
   inkscape:cy="113.17324"
   inkscape:window-x="-13"
   inkscape:window-y="-13"
   inkscape:window-maximized="1"
   inkscape:current-layer="Capa_1" />

<g
   id="g70"
   transform="translate(208.84473,-44.6065)">
</g>
<g
   id="g72"
   transform="translate(208.84473,-44.6065)">
</g>
<g
   id="g74"
   transform="translate(208.84473,-44.6065)">
</g>
<g
   id="g76"
   transform="translate(208.84473,-44.6065)">
</g>
<g
   id="g78"
   transform="translate(208.84473,-44.6065)">
</g>
<g
   id="g80"
   transform="translate(208.84473,-44.6065)">
</g>
<g
   id="g82"
   transform="translate(208.84473,-44.6065)">
</g>
<g
   id="g84"
   transform="translate(208.84473,-44.6065)">
</g>
<g
   id="g86"
   transform="translate(208.84473,-44.6065)">
</g>
<g
   id="g88"
   transform="translate(208.84473,-44.6065)">
</g>
<g
   id="g90"
   transform="translate(208.84473,-44.6065)">
</g>
<g
   id="g92"
   transform="translate(208.84473,-44.6065)">
</g>
<g
   id="g94"
   transform="translate(208.84473,-44.6065)">
</g>
<g
   id="g96"
   transform="translate(208.84473,-44.6065)">
</g>
<g
   id="g98"
   transform="translate(208.84473,-44.6065)">
</g>
<path
   inkscape:connector-curvature="0"
   id="path26"
   d="m 25.483132,126.30666 c 1.243833,1.24383 2.612169,2.23946 4.229143,3.10974 -0.871085,0.49794 -1.865917,0.74678 -2.736598,0.99555 -0.87068,-0.62192 -1.741012,-1.36867 -2.487308,-2.11495 0.248767,-0.37317 0.497244,-0.74653 0.621627,-1.24406 0.124383,-0.24877 0.248754,-0.49791 0.373136,-0.74628 z m 20.771789,-4.22835 c 0.746297,0.87069 1.492776,1.74101 2.363462,2.48731 -0.249172,0 -0.497509,0.24835 -0.746274,0.37315 v -0.24851 c -0.124384,-0.37316 -0.74627,-0.2493 -0.74627,0.12386 v 0.62241 c -0.124384,0.1244 -0.248755,0.12413 -0.373138,0.2485 -0.621916,-0.37314 -1.243771,-0.87078 -1.865684,-1.36791 0.497533,-0.74629 0.994755,-1.49251 1.367904,-2.23881 z m -18.657612,-0.99557 c 0.124382,0.12439 0.248755,0.12412 0.373135,0.24851 0,0.1244 1.58e-4,0.24849 0.124646,0.24849 1.990125,1.99014 4.104681,3.7321 6.467959,5.2247 -0.622323,0.37315 -1.244435,0.74626 -1.990324,1.11942 -1.119448,-0.74632 -2.11467,-1.36815 -3.109737,-2.23883 -0.248762,-0.24877 -0.497522,0.12438 -0.373133,0.37313 0.870678,0.87068 1.866439,1.61692 2.985884,2.23884 -0.497534,0.24876 -1.119657,0.62213 -1.617189,0.8709 -0.497534,-1.3678 -1.244019,-2.48714 -2.36346,-3.35823 -0.24877,-0.12437 -0.497261,0.24875 -0.248495,0.37314 0.870681,0.74629 1.367889,1.49225 1.741038,2.48733 -1.368213,-0.87069 -2.612176,-1.74101 -3.856006,-2.86047 0.746298,-1.49259 1.368146,-3.10954 1.865682,-4.72693 z M 7.8210833,120.33649 c 1.368216,1.11943 2.6119037,2.1144 4.1044987,2.98509 -0.248766,0.12477 -0.37315,0.62173 0,0.8709 2.487661,1.61697 5.099178,3.35897 7.711219,4.85158 -0.373553,0.87026 -0.621614,1.36734 -0.994766,1.86489 -1.990126,-1.74138 -4.726311,-2.86057 -7.089586,-3.85522 -0.373152,-0.1248 -0.498056,0.37327 -0.24929,0.62162 2.238896,1.24425 4.602461,2.86095 6.96574,3.85601 -0.746297,0.87068 -1.616891,1.61692 -2.611956,1.86568 -0.373147,0.12439 -0.621889,0.37285 -0.746271,0.62164 -2.238894,0.12437 -4.9755737,-1.61759 -8.0851477,-5.22471 v -0.24849 c 0.746297,0.7463 1.492518,1.49306 2.238818,2.11496 0.373149,0.24838 0.870927,-0.12463 0.497778,-0.49777 -0.870681,-0.87068 -1.741271,-1.86632 -2.611953,-2.7366 0,-0.62192 0.12385,-1.24365 0.12385,-1.98954 0.995062,1.24425 2.114931,2.36264 3.2343767,3.48209 -0.248767,0.12437 -0.4972567,0.37365 -0.248493,0.62241 1.616978,1.49261 3.482532,2.61208 5.597042,3.2336 0.373154,0.1248 0.622178,-0.49765 0.124647,-0.62163 -1.865746,-0.74631 -3.607465,-1.74152 -5.10006,-3.10973 0.248764,-0.12439 0.373409,-0.37288 0.124643,-0.62163 -1.1194487,-1.4926 -2.4877927,-2.86133 -3.8560057,-4.22916 0,-0.37314 0.124108,-0.8709 0.248493,-1.24403 1.243829,1.11943 2.612436,2.36352 3.9806477,3.35901 0.373149,0.24836 0.745751,-0.24849 0.496986,-0.62163 -1.243828,-1.36821 -2.7365427,-2.73683 -4.2291427,-3.98065 0,-0.12437 2.21e-4,-0.37299 0.124645,-0.49779 0,-0.24836 0.124903,-0.49776 0.249287,-0.8709 z m 39.5532427,-1.24327 c 1.119449,1.24383 2.238781,2.48792 3.358227,3.73137 -0.249169,0.24835 -0.621614,0.49697 -0.994762,0.87011 0,-0.24835 -1.58e-4,-0.37259 -0.124641,-0.87011 -0.124383,-0.49754 -0.870126,-0.3737 -0.870126,0.12386 v 0.12462 c -0.746302,-0.62189 -1.493051,-1.36787 -2.114966,-2.11416 z m 0.622427,-3.10973 c 1.741358,1.4926 3.482008,2.98478 5.347758,4.353 -0.622323,0.49712 -0.995423,0.99499 -1.492546,1.49255 -0.497534,-0.99508 -1.118863,-1.99003 -1.616394,-2.98511 -0.373149,-0.6219 -1.244326,-0.12412 -0.995562,0.49779 0,0.12438 0.124646,0.12411 0.124646,0.24848 l -1.617192,-1.61719 c 0.124384,-0.62191 0.24929,-1.3676 0.24929,-1.98952 z m -37.191374,-4.85156 c 1.368212,1.11944 2.736549,2.11414 4.229142,2.86045 h 0.124647 c 0,0 -4.73e-4,0.12464 0.123845,0.12464 2.487661,1.61697 4.851479,3.35869 7.463521,4.72691 -0.123975,0.49795 -0.24875,0.87036 -0.373135,1.36792 l -0.746274,-0.74628 c -0.248763,-0.24876 -0.621902,0.12435 -0.373135,0.37314 0.248769,0.24876 0.372603,0.37365 0.496986,0.62242 -2.238892,-1.49219 -4.477299,-2.86066 -6.591808,-4.47764 -0.373151,-0.24877 -0.621905,0.24823 -0.373137,0.49697 2.363276,1.74138 4.726572,3.48309 7.214231,5.10006 -0.124382,0.62153 -0.249016,1.24378 -0.497779,1.86571 -0.248766,-0.24879 -0.621628,-0.49778 -0.621628,-0.49778 -0.621916,-0.37316 -1.36841,-0.8709 -1.990327,-1.24407 l -3.73136,-2.23881 c -0.497534,-0.37315 -0.995312,0.49776 -0.497784,0.87092 l 4.850774,2.98509 c 0.497533,0.24876 1.119915,0.87105 1.741832,1.1194 -0.124381,0.49794 -0.249014,1.11925 -0.49778,1.61718 -2.363278,-1.86575 -4.850957,-3.48292 -7.214233,-5.22469 -0.497531,-0.37316 -0.870668,0.37392 -0.373134,0.74705 2.487658,1.74097 4.850681,3.4819 7.462726,5.09928 -0.248768,0.62152 -0.372866,1.24391 -0.621631,1.74103 -2.363277,-1.61697 -4.975067,-3.23353 -7.462729,-4.72613 0.124385,-0.12438 0.248769,-0.3734 0,-0.49777 -1.492593,-1.11945 -2.9858317,-2.23905 -4.4784257,-3.48287 0.248766,-0.7463 0.373657,-1.49252 0.622423,-2.23881 1.24383,1.11945 2.4877927,2.23904 3.8560027,3.10972 0.373151,0.24837 0.746289,-0.37287 0.373139,-0.62162 -1.368213,-1.11946 -2.736821,-2.23958 -3.9806507,-3.35903 0.248766,-0.74629 0.497507,-1.36787 0.746274,-2.11418 1.3682117,1.24383 2.8606577,2.48755 4.4776377,3.35824 0.373147,0.24876 0.746283,-0.37286 0.373133,-0.62162 -1.616977,-1.11945 -3.109683,-2.3637 -4.6022757,-3.60752 0.2487617,-0.87069 0.4977627,-1.61664 0.8709127,-2.48731 z m 1.990324,-5.59706 c 1.492597,1.36822 2.985564,2.61192 4.726925,3.73137 0.124382,0.12438 0.24875,0 0.373134,0 1.741363,1.4926 3.731563,2.98505 5.72169,4.10451 0.123978,0.4975 -7.88e-4,1.1199 -0.124644,1.74182 -1.865743,-1.11945 -3.731299,-2.23903 -5.597046,-3.48287 -0.373149,-0.24877 -0.87093,0.37313 -0.497778,0.74628 1.865746,1.4926 3.73182,2.86094 5.846331,3.856 -0.124381,0.62191 -0.248754,1.11912 -0.373136,1.74103 -2.363276,-1.61696 -4.850957,-2.98502 -7.214236,-4.47764 0,-0.12437 -0.124106,-0.24874 -0.248493,-0.37314 -1.492593,-0.99506 -2.985569,-1.99027 -4.353785,-3.10972 0.124385,-0.24877 0.124111,-0.62135 0.248494,-0.87012 0.124383,-0.37315 0.373399,-0.74626 0.497778,-1.11941 1.119449,1.11945 2.363151,2.23826 3.731365,3.10895 0.373148,0.24876 0.995315,-0.37313 0.497779,-0.74628 -1.368214,-1.11945 -2.612175,-2.23878 -3.856005,-3.35823 0.248764,-0.49753 0.497246,-0.99502 0.621627,-1.49255 z m 2.611957,-5.2239 c 1.36821,1.36821 2.985025,2.61219 4.85077,3.48287 0.124383,0.12439 0.248754,0.12439 0.373139,0 1.741358,1.24383 3.607447,2.48726 5.473194,3.60671 -0.497534,0.24877 -0.870642,0.62241 -1.119411,1.36871 v 0.24848 c -1.492591,-0.74629 -2.985041,-1.61688 -4.477635,-2.61195 -0.497528,-0.37315 -1.243803,0.49777 -0.746272,0.87092 1.492593,1.11944 3.109409,2.23826 4.850774,3.10894 -0.124385,0.49754 -0.248756,1.11966 -0.373139,1.61718 -2.114513,-1.36821 -3.980179,-2.48725 -5.84633,-3.97985 -0.248763,-0.12438 -0.497247,-3.2e-4 -0.621629,0.12386 -1.492598,-1.11945 -2.985577,-2.36291 -4.353789,-3.60674 0.248767,-0.62191 0.622152,-1.24377 0.870916,-1.86567 1.492598,1.36822 2.985301,2.61217 4.60228,3.856 0.373152,0.24877 0.745752,-0.37365 0.496988,-0.62242 -1.61698,-1.36821 -3.10915,-2.73629 -4.726132,-4.1045 z M 26.104763,83.145894 h 1.617185 c 1.865751,1.119449 3.482548,2.23931 5.223912,3.607516 0.248765,0.248768 0.497247,0.124389 0.621629,0 2.363276,1.492595 4.353189,3.233781 6.343319,5.223911 -0.248766,-0.124379 -0.497247,-0.124124 -0.62163,0.124644 -0.124386,-0.124389 -0.249012,-0.249288 -0.49778,-0.249288 -0.995062,0.248768 -2.736038,-1.616905 -3.606719,-2.238819 L 31.82645,87.001903 c -0.373149,-0.248758 -0.870927,0.372871 -0.497778,0.621639 1.741361,1.492585 3.482546,3.110207 5.22391,4.478423 0.870678,0.621914 1.617421,1.118899 2.488099,0.496985 0,0.248768 0.124111,0.373402 0.248497,0.49778 2.114509,1.492595 4.104958,3.109422 6.21947,4.477638 0.497531,0.373146 1.243804,-0.49724 0.746273,-0.994766 -1.990128,-1.616983 -3.980312,-3.109686 -6.09483,-4.602281 0.497534,0.248767 1.243274,-0.373382 0.870124,-0.870917 -1.741362,-2.487655 -4.229055,-4.352935 -6.841097,-5.84554 -0.373147,-0.248757 -0.746,-1.57e-4 -0.994768,0.248493 -0.870678,-0.746302 -1.741271,-1.492251 -2.61195,-2.114175 5.472853,1.492605 9.702183,5.970046 14.179975,10.074685 4.477785,4.104639 9.204396,8.085023 14.055331,11.816523 0.497939,1.11944 0.497928,1.49251 0.373136,1.86567 -0.373149,-0.37316 -0.747052,-0.74652 -1.1202,-1.24405 -0.497533,-0.49753 -1.11914,-0.24824 -1.367907,0.24928 -0.497529,-0.49752 -0.99475,-0.87116 -1.367898,-1.36868 -0.746298,-0.74631 -1.865706,0.37309 -1.119414,1.1194 1.368213,1.4926 2.860919,3.35871 4.602283,4.72692 0,0.37315 -0.124642,0.62163 -0.124642,0.99477 H 58.56842 c 0,0 -4.602226,-4.47758 -6.094826,-5.97018 0.497533,0 0.746819,-0.74626 0.249285,-1.11942 -1.865743,-1.3682 -3.607202,-2.36339 -4.975416,-4.22913 -0.497529,-0.746305 -1.74158,-3e-5 -1.244046,0.74626 1.119441,1.61698 2.736786,3.35821 4.726916,4.10451 -0.124382,0.24876 -0.24876,0.49751 0,0.74627 1.492598,1.74136 3.109155,3.3587 4.726132,5.10006 -0.124384,0.12439 -0.248493,0.24822 -0.248493,0.49698 -1.492594,-1.49259 -2.985572,-2.86039 -4.353785,-4.35299 -0.124387,-0.12438 -0.372866,-0.24848 -0.621634,-0.24848 0.124386,-0.24877 0.124386,-0.49805 0,-0.62244 -2.114509,-1.99012 -4.601943,-3.35788 -6.716448,-5.47239 -0.124384,-0.12439 -0.373401,-0.12465 -0.49778,-0.12465 0,-0.12438 -1.57e-4,-0.3734 -0.124649,-0.49778 -2.114511,-1.368213 -4.353179,-2.612178 -6.716453,-3.856005 -0.621913,-0.373146 -1.243544,0.622414 -0.62163,0.99556 2.238892,1.243828 4.477557,2.611917 6.716458,3.731355 h 0.248493 c -0.124382,0.24877 -0.124122,0.37287 0.124641,0.62164 1.990131,1.99013 4.353164,4.47812 7.089592,5.47319 h 0.124641 c -0.373152,0.24877 -0.497794,0.74626 -0.124641,1.11942 2.23889,2.36328 4.477816,4.72658 6.841096,6.84109 l -1.119408,1.11941 c 0,0 -1.57e-4,-0.12465 -0.124645,-0.12465 -2.612041,-1.74138 -4.975086,-3.23375 -6.716452,-5.97018 -0.373147,-0.62191 -1.367913,-1.5e-4 -0.994768,0.62163 1.741363,2.61206 4.228511,5.22441 7.338088,6.21947 l -1.492549,1.86568 c -1.990124,-1.74136 -4.104163,-3.35844 -6.218676,-4.97542 -0.37315,-1.74136 -2.612177,-2.73611 -3.856009,-1.36789 -1.865743,-1.24383 -3.607462,-2.23929 -5.100056,-3.98066 -0.497533,-0.49752 -1.119421,0.24874 -0.746272,0.74628 1.368213,1.61698 3.234573,3.23408 5.224705,4.22913 -0.497531,0.87069 -0.870906,1.61744 -1.244053,2.48812 -1.990131,-1.36822 -4.22934,-2.61216 -6.21947,-3.85601 -0.497533,-0.24877 -0.87067,0.49751 -0.373136,0.74627 2.114513,1.24382 4.104956,2.73656 6.219471,3.85601 -0.373154,0.74629 -0.746526,1.61637 -1.244055,2.36266 -2.114512,-1.49259 -4.229084,-2.86064 -6.094828,-4.47764 -0.373147,-0.37314 -0.994777,0.24928 -0.621627,0.62243 1.990129,1.74136 4.104421,3.23328 6.343317,4.6015 l -1.119409,1.86647 c -2.114509,-1.36822 -4.104956,-2.73656 -6.219471,-4.22915 -0.373148,-0.37315 -0.994776,0.37312 -0.621625,0.74628 1.990132,1.4926 3.980314,2.98476 6.094822,4.35298 -0.248764,0.24876 -0.497506,0.62175 -0.74627,0.87092 -2.114512,-1.24423 -4.22882,-2.48724 -5.970185,-4.35299 -0.373145,-0.37315 -0.871186,0.24847 -0.622422,0.62163 1.741365,1.74134 3.607441,3.35833 5.846333,4.35299 -0.248765,0.24875 -0.497508,0.49792 -0.746273,0.74628 -0.248764,0.24877 -0.497508,0.37366 -0.746271,0.62241 -1.990128,-1.36821 -3.855942,-2.7364 -5.721691,-4.35379 0.124385,-0.12436 0.124385,-0.249 0,-0.49779 -0.497529,-0.37313 -1.119122,-0.87008 -1.74104,-1.24323 0.248769,-0.8707 0.497512,-1.86592 0.746276,-2.7366 0.746297,0.62191 1.616631,1.24403 2.48731,1.61719 0.373149,0.12438 0.746287,-0.37365 0.373138,-0.62244 -0.870682,-0.74629 -1.865916,-1.4925 -2.736599,-2.23882 0.124382,-0.49752 0.124644,-1.11964 0.124644,-1.61717 0.746296,0.49753 1.492779,0.99553 2.363462,1.36869 0.497529,0.24876 0.746284,-0.4975 0.373133,-0.74627 -0.870679,-0.62193 -1.741803,-1.24376 -2.488103,-1.86568 v -2.9851 c 1.119448,1.24383 2.363411,2.23826 3.856007,3.10894 0.248768,0.12438 0.622162,2e-5 0.49778,-0.37312 0,-0.49755 -3.16e-4,-0.49724 -0.249284,-0.99478 -0.124384,-0.24877 -0.62137,-0.12466 -0.496987,0.24849 -1.368214,-0.87067 -2.611916,-1.86511 -3.731363,-3.10894 h -0.124645 c -0.124382,-0.6219 -0.497235,-1.11939 -0.994769,-1.49253 -0.124379,-0.12439 -0.249012,-0.37341 -0.497777,-0.49779 -0.124384,-0.12438 -0.248753,-0.12465 -0.373135,-0.12465 -1.990131,-1.61697 -4.228807,-2.86093 -6.343319,-4.22913 -0.248767,-0.12439 -0.498039,-0.12413 -0.622424,0.12464 -1.492595,-1.11945 -2.984778,-2.362894 -4.352991,-3.606731 l 0.746273,-1.493331 c 1.119446,1.243837 2.362889,2.239054 3.606718,3.109732 0,0 1.57e-4,0.12465 0.124645,0.12465 0,0.12438 0.12411,0.12464 0.248492,0.12464 0.124383,0 0.124908,0.12412 0.249287,0.24849 0.124382,0.12438 0.248754,0 0.373138,0 0.373149,0.24876 0.621888,0.62162 0.74627,0.62162 0.870683,0.62193 1.616631,1.24431 2.487312,1.74185 1.119448,0.74629 2.114929,1.3676 3.234381,1.98953 -0.124387,0.12438 -0.12492,0.37339 0.123845,0.49777 2.238895,1.86575 4.602465,3.73184 6.965743,5.4732 0.248765,0.24877 0.746531,0.12387 0.870914,-0.24929 0.124384,-0.49753 0.124122,-0.62187 -0.124641,-1.1194 -0.124384,-0.37315 -0.498043,-0.24851 -0.622424,0.12464 -1.61698,-1.24383 -3.233791,-2.61218 -4.850775,-3.85601 0.24877,-0.12438 0.37315,-0.4975 0,-0.74627 l -5.223906,-2.98509 c -0.870682,-0.49753 -1.990285,-1.49226 -3.109734,-2.11417 v -0.124649 c -1.492594,-1.368216 -2.86093,-2.612436 -4.229143,-3.980653 0.248767,-0.373146 0.498039,-0.745733 0.622424,-1.243258 1.368213,1.243828 2.73601,2.362903 4.352991,3.233585 2.238892,1.865741 4.727098,3.856225 7.463521,5.100065 0.497531,0.24875 0.994779,-0.37313 0.621628,-0.74628 -2.363275,-1.86575 -4.975599,-3.358696 -7.338875,-5.100058 -1.492596,-1.119449 -2.984781,-2.239045 -4.352993,-3.482863 0.248766,-0.497544 0.621356,-0.99502 0.870123,-1.492555 1.492596,1.243827 2.985831,2.488067 4.478428,3.607516 0.248765,0.124378 0.497248,-1.57e-4 0.62163,-0.124644 2.114509,2.114508 4.975052,4.602254 7.835862,5.348544 h 0.249289 c 0,0.12439 -3.16e-4,0.24876 0.123845,0.37315 1.61698,1.74136 3.607704,3.60695 5.970975,4.47763 0.373156,0.12438 0.621906,-0.37287 0.373136,-0.62162 -1.865743,-1.49261 -3.980323,-2.73628 -5.721685,-4.47764 -0.124383,-0.12439 -0.248753,-0.12465 -0.373136,-0.12465 0,-0.24876 -3.15e-4,-0.37286 -0.24929,-0.62162 -2.487656,-1.865756 -5.224088,-3.109663 -7.587368,-5.34856 -0.373149,-0.373156 -0.745997,-0.124663 -0.994765,0.248493 -1.368212,-1.368216 -2.860399,-2.487528 -4.352992,-3.731355 0.248766,-0.373156 0.497505,-0.870917 0.746272,-1.244063 1.243832,0.99507 2.611644,2.11441 3.979857,2.985092 0.497531,0.248767 0.994778,-0.373117 0.621628,-0.746273 -1.243827,-1.243828 -2.486998,-2.238515 -3.855212,-3.233585 0.37315,-0.497535 0.745999,-0.995011 0.994765,-1.492546 1.368215,1.243838 2.611905,2.487802 4.104503,3.482872 0.497529,0.373147 0.870927,-0.373911 0.497778,-0.747068 -1.24383,-1.368206 -2.612441,-2.611376 -3.98065,-3.855213 0.124384,-0.124379 0.248755,-0.373392 0.373136,-0.49778 1.368213,1.243827 2.860918,2.487291 4.60228,3.233594 h 0.124642 c 2.363278,2.114499 4.975055,4.478374 7.835864,5.970969 0.497531,0.248767 0.995572,-0.373127 0.62242,-0.746273 -2.363279,-2.363277 -5.348995,-4.353446 -7.836655,-6.467964 -0.248767,-0.248768 -0.497505,-0.124379 -0.746271,0 l -3.731365,-2.985082 c 0.248768,-0.373156 0.622153,-0.870907 0.870915,-1.244054 1.741362,1.492595 3.357906,2.985033 5.099267,4.477628 0.497533,0.373156 1.119956,-0.248482 0.622422,-0.621629 -1.368212,-1.616974 -2.985301,-2.985563 -4.602278,-4.353789 z m 2.518273,-5.087352 c -2.535462,0.04809 -5.044639,0.831473 -7.369046,2.600051 -0.621917,0.497535 -0.746546,1.243758 -0.49778,1.865672 -5.846002,4.726553 -9.452949,12.313533 -12.4381397,19.154605 -3.8558765,8.45805 -8.45791949,18.78178 -7.33887809,28.2353 1.36821219,11.69201 18.03589179,15.92077 20.64793279,3.85521 6.094771,0.99508 12.189211,-0.12398 17.288916,-3.60671 0.248764,-0.12439 0.372865,-0.24861 0.62163,-0.49778 4.477792,4.22902 12.935744,0.24868 18.159829,-5.34855 -0.09392,1.78464 7.571637,-2.68375 7.527062,-0.89944 l 2.116473,-7.34546 C 66.971132,117.14637 60.417366,99.793097 60.185613,101.05723 53.842076,94.09179 46.876803,86.877701 39.41382,81.778002 36.090466,79.48857 32.328709,77.9883 28.623036,78.058542 Z m 27.209501,25.735078 c -2.114509,-1.86574 -4.229018,-3.48272 -6.343531,-5.224084 -0.621915,-0.497535 -1.616981,0.373146 -0.995063,0.99507 2.238891,1.741364 4.353401,3.607104 6.592296,5.224084 0.621917,0.24876 1.243425,-0.62191 0.746298,-0.99507 z m -9.57749,7.58737 c -1.616977,-1.36822 -3.358341,-2.61204 -4.850939,-4.10464 -0.497531,-0.49754 -1.368212,0.24877 -0.870682,0.87068 1.492602,1.61699 3.109577,3.10958 5.099706,4.10464 0.497533,0.24877 1.119042,-0.49753 0.621915,-0.87068 z M 26.850891,123.8193 v 0 c 0.124379,0.12437 0.124379,0.12437 0.248766,0.24836 v 0 z M 45.881489,99.937752 c -2.238894,-1.492595 -4.477784,-2.98519 -6.467914,-4.850931 -0.373149,-0.373156 -0.995067,0.248758 -0.62192,0.621914 1.865751,1.865741 4.104643,3.855871 6.592306,4.975325 0.62191,0.37314 0.995064,-0.37316 0.497528,-0.746308 z m 2.736837,8.458048 c -2.114512,-1.61699 -4.353406,-3.10959 -6.343535,-4.85094 -0.37315,-0.24876 -0.7463,-0.12438 -0.995065,0.12438 -2.114513,-1.36821 -4.229023,-2.61204 -6.094771,-4.229023 -0.497531,-0.373146 -1.119446,0.248768 -0.621913,0.621913 1.865745,1.74136 3.980256,3.48273 6.343535,4.4778 0.124378,0.12438 0.373149,0 0.497531,0 v 0 c 1.990127,1.99013 4.104641,3.85587 6.716683,4.97532 0.621512,0.12439 1.119041,-0.7463 0.497535,-1.11945 z m -11.692413,0.74629 c 0,-0.37314 -2.48766,-1.99012 -2.736429,-2.11451 -0.995062,-0.7463 -1.990124,-1.61697 -2.985188,-2.36327 -0.373149,-0.24877 -0.870681,0.37314 -0.497533,0.6219 1.119448,0.87069 2.114513,1.74137 3.233957,2.61206 0.746299,0.62191 1.492599,1.49259 2.363278,1.99012 0.746299,0.37316 1.492593,0.24877 1.492593,-0.7463 1.58e-4,-0.62191 -0.870678,-0.49753 -0.870678,0 z M 35.060576,97.574476 c -2.114513,-1.616984 -4.47779,-2.9852 -6.467918,-4.726552 -0.7463,-0.621924 -1.741362,0.373146 -0.995063,0.99506 2.114511,1.741362 4.353405,3.731492 6.841063,4.726552 0.745897,0.497535 1.243425,-0.497535 0.621918,-0.99506 z"
   style="stroke-width:0.40648037"
   inkscape:export-xdpi="19.360001"
   inkscape:export-ydpi="19.360001" /><g
   id="g68"
   transform="matrix(1.1095096,0,0,1.1095096,31.01658,37.599042)"
   inkscape:export-xdpi="19.360001"
   inkscape:export-ydpi="19.360001">
	<g
   id="g22">
		<g
   id="g6">
			<path
   style="clip-rule:evenodd;fill:#8c8b88;fill-rule:evenodd"
   d="m 96.575,81.31 c 0,19.176 0,34.936 -34.724,34.721 H 61.215 C 26.494,118.414 26.494,100.486 26.494,81.31 v -0.566 c 0,-19.176 15.545,-34.721 34.721,-34.721 h 0.636 c 19.177,0 34.724,15.545 34.724,34.721 z"
   id="path2"
   inkscape:connector-curvature="0" />
			<path
   style="clip-rule:evenodd;fill:#e2e2e2;fill-rule:evenodd"
   d="m 88.702,81.469 c 0,19.079 7.873,34.389 -25.977,35.878 v 0 c -33.986,2 -25.977,-16.799 -25.977,-35.878 v -0.563 c 0,-19.077 11.524,-34.542 25.74,-34.542 h 0.471 c 14.218,0 25.743,15.465 25.743,34.542 z"
   id="path4"
   inkscape:connector-curvature="0" />
		</g>
		<g
   id="g20">
			<g
   id="g12">
				<path
   style="clip-rule:evenodd;fill:#9d9d9d;fill-rule:evenodd"
   d="m 49.704,95.011 c 4.614,7.734 4.903,20.135 -2.177,24.357 -7.079,4.225 -18.849,-1.328 -23.463,-9.062 -4.614,-7.735 -6.349,-14.237 4.465,-21.653 9.164,-6.283 16.56,-1.377 21.175,6.358 z"
   id="path8"
   inkscape:connector-curvature="0" />
				<path
   style="clip-rule:evenodd;fill:#8c8b88;fill-rule:evenodd"
   d="m 50.602,96.685 c 4.172,6.993 3.931,18.506 -3.148,22.729 -7.08,4.223 -18.319,-0.439 -22.491,-7.434 -4.173,-6.992 -5.588,-12.963 5.265,-20.311 9.198,-6.227 16.2,-1.979 20.374,5.016 z"
   id="path10"
   inkscape:connector-curvature="0" />
			</g>
			<g
   id="g18">
				<path
   style="clip-rule:evenodd;fill:#9d9d9d;fill-rule:evenodd"
   d="m 75.902,95.011 c -4.614,7.734 -4.903,20.135 2.177,24.357 7.079,4.225 18.849,-1.328 23.463,-9.062 4.614,-7.735 6.349,-14.237 -4.465,-21.653 -9.164,-6.283 -16.559,-1.377 -21.175,6.358 z"
   id="path14"
   inkscape:connector-curvature="0" />
				<path
   style="clip-rule:evenodd;fill:#8c8b88;fill-rule:evenodd"
   d="m 75.005,96.685 c -4.172,6.993 -3.931,18.506 3.148,22.729 7.08,4.223 18.319,-0.439 22.491,-7.434 4.173,-6.992 5.588,-12.963 -5.265,-20.311 -9.198,-6.227 -16.2,-1.979 -20.374,5.016 z"
   id="path16"
   inkscape:connector-curvature="0" />
			</g>
		</g>
	</g>
	<g
   id="g66">
		<g
   id="g38">
			<g
   id="g34">
				<circle
   style="clip-rule:evenodd;fill:#9d9d9d;fill-rule:evenodd"
   cx="96.809998"
   cy="20.857"
   r="20.857"
   id="circle24" />
				<g
   id="g30">
					<circle
   style="clip-rule:evenodd;fill:#9d9d9d;fill-rule:evenodd"
   cx="24.209999"
   cy="20.857"
   r="20.856001"
   id="circle26" />
					<ellipse
   style="clip-rule:evenodd;fill:#e2e2e2;fill-rule:evenodd"
   cx="25.167999"
   cy="28.202"
   rx="15.644"
   ry="14.791"
   id="ellipse28" />
				</g>
				<ellipse
   style="clip-rule:evenodd;fill:#e2e2e2;fill-rule:evenodd"
   cx="96.574997"
   cy="28.202"
   rx="15.644"
   ry="14.791"
   id="ellipse32" />
			</g>
			<path
   style="clip-rule:evenodd;fill:#9d9d9d;fill-rule:evenodd"
   d="M 24.21,38.21 C 24.21,19.53 40.921,4.388 61.535,4.388 82.15,4.388 98.86,19.53 98.86,38.21 98.86,56.89 89.613,72.032 61.535,72.032 31.559,72.032 24.21,56.89 24.21,38.21 Z"
   id="path36"
   inkscape:connector-curvature="0" />
		</g>
		<g
   id="g64">
			<g
   id="g52">
				<g
   id="g44">
					<circle
   style="clip-rule:evenodd;fill:#434849;fill-rule:evenodd"
   cx="42.521999"
   cy="39.882"
   r="4.0739999"
   id="circle40" />
					<path
   style="clip-rule:evenodd;fill:#ffffff;fill-rule:evenodd"
   d="m 42.693,39.095 c 0,-0.85 0.686,-1.541 1.538,-1.541 0.852,0 1.538,0.692 1.538,1.541 0,0.852 -0.686,1.542 -1.538,1.542 -0.852,0 -1.538,-0.691 -1.538,-1.542 z"
   id="path42"
   inkscape:connector-curvature="0" />
				</g>
				<g
   id="g50">
					<circle
   style="clip-rule:evenodd;fill:#434849;fill-rule:evenodd"
   cx="80.027"
   cy="39.882"
   r="4.0739999"
   id="circle46" />
					<path
   style="clip-rule:evenodd;fill:#ffffff;fill-rule:evenodd"
   d="m 80.198,39.095 c 0,-0.85 0.687,-1.541 1.539,-1.541 0.853,0 1.538,0.692 1.538,1.541 0,0.852 -0.686,1.542 -1.538,1.542 -0.852,0 -1.539,-0.691 -1.539,-1.542 z"
   id="path48"
   inkscape:connector-curvature="0" />
				</g>
			</g>
			<g
   id="g62">
				<path
   style="clip-rule:evenodd;fill:#434849;fill-rule:evenodd"
   d="m 68.598,55.45 c 0,3.12 -2.529,5.649 -5.65,5.649 h -2.823 c -3.121,0 -5.65,-2.529 -5.65,-5.649 V 41.458 c 0,-3.121 2.529,-5.65 5.65,-5.65 h 2.823 c 3.121,0 5.65,2.529 5.65,5.65 z"
   id="path54"
   inkscape:connector-curvature="0" />
				<g
   id="g60">
					<circle
   style="clip-rule:evenodd;fill-rule:evenodd"
   cx="59.346001"
   cy="57.945999"
   r="0.93300003"
   id="circle56" />
					<circle
   style="clip-rule:evenodd;fill-rule:evenodd"
   cx="63.659"
   cy="57.945999"
   r="0.93400002"
   id="circle58" />
				</g>
			</g>
		</g>
	</g>
</g><g
   id="g226"
   transform="matrix(0.42788128,0,0,0.42788128,95.329662,90.575029)"
   inkscape:export-xdpi="19.360001"
   inkscape:export-ydpi="19.360001"><path
     inkscape:connector-curvature="0"
     id="path18"
     d="m 129.01907,70.729817 c -6.12,-4.284 -11.628,-8.874 -16.83,-14.076 -0.612,-0.918 -1.836,0.307 -1.224,1.225 5.202,5.508 10.71,10.403 17.136,14.382 0.918,0.305 1.836,-0.919 0.918,-1.531 z" /><path
     inkscape:connector-curvature="0"
     id="path20"
     d="m 141.56507,45.331815 c -5.813,-4.284 -11.628,-8.262 -16.218,-14.076 -1.224,-1.224 -3.061,0.612 -1.836,1.836 4.59,5.814 10.404,11.016 17.441,13.77 0.919,0.917 1.531,-0.918 0.613,-1.53 z" /><path
     inkscape:connector-curvature="0"
     id="path22"
     d="m 144.01307,38.905815 c -4.59,-4.896 -10.098,-8.568 -14.688,-13.464 -1.224,-1.224 -3.06,0.612 -1.836,1.836 4.59,4.59 9.792,10.098 15.606,12.852 0.612,0.612 1.53,-0.306 0.918,-1.224 z" /><path
     inkscape:connector-curvature="0"
     id="path24"
     d="m 168.18707,45.943815 c -2.447,-1.836 -5.201,-3.366 -7.65,-4.896 -3.06,-2.142 -5.813,-4.896 -8.873,-7.344 v 0 c -0.307,-0.918 -1.53,-1.224 -2.143,-0.306 -0.613,0.918 -12.852,-12.546 -14.076,-13.77 -0.918,-1.224 -2.754,0.612 -1.836,1.836 1.53,1.836 14.382,17.442 17.442,13.77 3.978,4.896 10.098,10.404 16.218,12.545 0.613,-0.305 1.531,-1.223 0.918,-1.835 z" /><path
     inkscape:connector-curvature="0"
     id="path238"
     d="m 95.541422,55.138252 1.703857,14.431064 c 2.798671,4.584345 8.105111,9.524279 13.412411,12.789081 4.59101,2.754 9.79218,4.8945 14.07618,5.8125 7.038,1.224 15.60589,0.61145 22.33789,-3.06055 3.366,2.754 6.73258,4.8971 11.01758,6.12109 11.629,4.284 25.70512,2.14322 34.57812,-6.42578 3.672,3.06 7.34363,6.11972 11.01563,8.26172 7.344,4.284 17.1371,6.73194 24.7871,1.83594 0.305,-0.306 0.61097,-0.30633 0.91797,-0.61133 1.529,0.611 3.36457,0.30639 3.97657,-1.22461 18.666,-41.003002 -3.05882,-91.4944819 -34.88282,-119.646482 -12.547,-11.322 -28.7647,-24.17222 -45.5957,-14.07422 -19.584,11.628 -33.91709,41.56652761 -44.67578,61.19922 -4.95498,9.512191 -10.307565,31.946293 -12.669008,34.592357 z M 170.9448,-25.657235 c 4.285,2.448 8.56785,5.50711 13.46485,7.03711 1.529,0.612 2.14129,-1.22262 1.5293,-2.14062 5.81399,4.284 11.9341,11.3221101 15.9121,15.9121101 3.061,3.672 5.50804,7.03698 7.95704,10.70898 -3.061,-2.754 -6.73161,-5.20174996 -10.09961,-7.34375 -1.223,-0.918 -2.44666,1.22458004 -1.22266,2.14258004 6.426,4.58999996 10.7088,10.40410986 16.2168,15.91210986 0.307,0.306 0.91761,0.30469 1.22461,0.30469 0.611,1.224 1.22493,2.44787 1.83593,3.67187 -0.611,-0.612 -1.22529,-0.9173 -1.52929,-1.5293 -1.531,-1.53 -3.97922,0.91922 -2.44922,2.44922 2.449,2.448 4.89575,4.89511 7.34375,7.03711 0.85712,2.28566 1.67824,4.32004 2.28711,6.57032 -0.55871,-0.55797 -1.11678,-1.11587 -1.67383,-1.67383 -1.225,-1.224 -2.44888,-2.44788 -3.67188,-3.67188 -2.449,-2.448 -4.89575,-4.89575 -7.34375,-7.34375 -0.918,-0.918 -2.44925,0.6113 -1.53125,1.5293 2.754,3.366 5.81436,6.42501 8.56836,9.79101 1.529,1.836 3.36546,4.89582 5.81446,5.50782 0.305,0 0.61097,0.001 0.91797,-0.30469 1.223,4.896 2.1409,9.7915 2.7539,14.6875 -2.143,-2.142 -4.28506,-3.67117 -7.03906,-5.20117 -0.611,-0.306 -1.22297,0.30597 -0.91797,0.91797 1.531,2.143 2.75352,4.28246 3.97852,6.730462 0.918,1.529 2.1429,3.36549 2.7539,4.89649 -3.672,-3.06 -7.03729,-6.425382 -10.40429,-9.484382 -0.611,-0.612 -1.52897,0.30597 -0.91797,0.91797 3.979,4.590002 8.26156,8.873572 12.85156,12.851572 0.307,0.306 0.61328,0.30664 0.61328,0.30664 v 9.79101 c -1.225,-1.224 -2.75351,-2.44687 -3.97851,-3.67187 -0.611,-0.611 -1.83561,0.30697 -1.22461,0.91797 1.531,2.143 3.36712,3.97881 5.20312,5.50781 v 1.83789 c -0.31,1.831 -0.61523,1.83008 -0.61523,1.83008 -2.449,-2.755 -6.12064,-4.59011 -9.18164,-7.03711 -0.611,-0.612 -1.52897,0.61161 -0.91797,1.22461 2.754,2.448 5.51,5.20111 8.875,7.03711 -0.918,0.612 -1.8375,0.91861 -3.0625,1.22461 -1.836,-0.918 -3.67022,-1.83624 -5.19922,-3.36524 -0.918,-1.225 -2.44925,0.6113 -1.53125,1.5293 0.307,0.612 0.91825,0.91761 1.53125,1.22461 -3.367,-0.918 -7.04064,-2.75516 -9.18164,-4.28516 -1.225,-0.918 -2.14124,-1.8359 -3.36524,-2.75391 1.531,1.224 3.06085,2.14255 4.58985,3.06055 0.918,0.612 1.83561,-0.6113 1.22461,-1.52929 -4.283,-3.97801 -9.48582,-7.0383 -14.38282,-10.4043 -3.059,-3.672 -5.50843,-7.6486 -7.64843,-11.9336 2.447,2.448 5.20072,4.58914 8.26172,6.11914 0.61099,0.30701 0.91796,6.8e-4 0.91796,-0.61132 2.754,3.979 6.11933,7.95626 9.48633,11.32226 1.529,1.53 3.67214,4.28355 6.11914,3.06055 0.307,-0.307 0.61133,-0.61197 0.61133,-0.91797 v -0.61133 c 0,-0.918 -1.52894,-1.22464 -1.83594,-0.30664 0,-0.307 -6.11947,-5.51009 -6.73047,-6.12109 -2.449,-2.448 -4.28473,-4.89475 -6.42773,-7.34375 -0.305,-0.611 -1.2233,-0.30636 -1.5293,0.30664 -4.283,-3.979 -8.87256,-7.650552 -12.85156,-11.935552 -1.529,-2.753 -3.06148,-5.50772 -4.89648,-8.26172 -2.143,-3.06 -6.11908,-2.75464 -7.95508,-0.30664 0,-0.306 0.30469,-0.61197 0.30469,-0.91797 0.307,-0.918 -0.91794,-1.83596 -1.83594,-0.91797 0,0.306 -0.30469,0.30729 -0.30469,0.61329 -4.896,-4.284 -9.18187,-9.1795 -12.54687,-14.6875 -0.307,-0.612 -0.61161,-0.61264 -1.22461,-0.30664 -0.306,-0.612 -1.52894,-0.918 -1.83594,0 -3.672,-2.448 -6.73133,-5.20236 -9.48633,-8.56836 -1.529,-2.142 -4.58991,5.7e-4 -2.75391,2.14257 3.366,4.284 7.34524,8.2623 12.24024,10.4043 0.918,0.306 1.83558,3e-5 2.14258,-0.91797 3.365,5.508 7.64956,10.71014 12.85156,14.99414 0.613,0.612 1.22494,0.30536 1.83594,-0.30664 -0.305,0.306 -0.30469,0.9173 -0.30469,1.5293 -0.307,2.754 3.3e-4,5.81436 0.61133,8.56836 -1.225,-0.918 -2.14324,-1.83591 -3.36524,-2.75391 -1.225,-0.918 -2.75625,1.22458 -1.53125,2.14258 2.143,1.53 3.9791,3.36517 6.1211,5.201172 0.611,2.142 1.52926,3.9791 2.44726,6.1211 -2.447,-2.143 -4.59011,-4.59043 -7.03711,-6.73243 -0.92,-0.918002 -2.14261,0.30661 -1.22461,1.22461 3.979,4.283 7.95524,8.56788 12.24024,12.54688 0.611,0.918 1.22294,2.14059 1.83594,3.05859 -5.203,-3.978 -10.40443,-8.26223 -15.60743,-12.24023 -0.611,-0.306 -1.22297,0.30697 -0.91796,0.91797 6.42799,5.509 12.54665,11.32339 18.97265,16.52539 0.307,0 0.30733,0.30469 0.61133,0.30469 -7.648,3.36599 -15.90952,4.59231 -24.47852,-0.30469 -7.038,-3.978 -11.32214,-10.09872 -14.99414,-17.13672 2.448,2.142 5.20172,4.2835 8.26172,5.8125 0.918,0.612 1.83597,-0.9183 0.91797,-1.5293 -3.978,-3.061 -7.95691,-6.11901 -11.62891,-9.791012 -0.611,-1.53 -1.52762,-3.06149 -2.14062,-4.89649 -1.224,-3.366 -5.81436,-4.58923 -8.56836,-3.36523 -3.366,-2.754 -7.0393,-5.81436 -10.4043,-8.56836 -0.918,-0.612 -2.14261,0.61261 -1.22461,1.22461 3.366,2.754 6.73261,6.11904 10.09961,8.87304 -0.612,0.918 -0.91733,1.83555 -0.61132,3.06055 0,0.306 0.30468,0.91861 0.30468,1.22461 -2.754,-2.143 -5.20108,-4.59042 -7.95508,-6.73242 -0.918,-0.612 -2.14261,0.30661 -1.2246,1.22461 3.36599,3.06 6.42696,6.121 9.79296,8.875002 0.612,3.365 1.5286,6.73001 3.0586,9.79101 -5.813,-5.509 -11.93277,-10.09843 -17.13477,-16.523432 -0.612,-0.612 -1.22397,0.30596 -0.91797,0.91796 4.896,6.426002 10.71005,13.157412 17.74805,17.441412 0.306,0.306 0.91666,3.6e-4 1.22266,-0.30664 1.225,2.448 2.44882,4.89706 3.67382,7.03906 -3.366,0 -6.4276,-0.30661 -10.09961,-1.22461 -8.567,-2.754 -11.62837,-9.17889 -18.35937,-13.46289 0,-2.754 3.6e-4,-5.203032 -0.30664,-7.957032 1.53,1.836 3.06212,3.67117 5.20312,5.201172 0.918,0.611 2.14066,-0.91793 1.22266,-1.835932 -2.447,-2.448 -4.58978,-4.89444 -6.42578,-7.64844 0,-2.448 10e-4,-4.59106 -0.30469,-7.03906 1.529,2.448 3.3655,4.89642 5.8125,6.73242 0.918,0.612 2.4473,-0.30661 1.5293,-1.22461 -2.754,-3.366 -5.20175,-6.7323 -7.34375,-10.4043 v -1.52929 c 0.611,0 0.9183,-0.30665 1.5293,-0.30665 2.448,3.06 5.20267,5.81571 8.26367,7.34571 0.611,0.306 1.83465,-0.30661 1.22265,-1.22461 -2.142,-2.754 -4.58911,-5.20303 -7.03711,-7.95703 0.612,-0.918 1.22494,-1.83591 1.83594,-2.75391 2.448,2.754 5.20072,5.20306 8.26172,7.03906 0.918,0.612 1.83661,-0.61325 1.22461,-1.53125 -2.448,-2.754 -5.20239,-5.50707 -7.65039,-7.95508 0.612,-0.918 1.53153,-2.14254 2.14453,-3.06054 2.447,3.06 4.89508,5.81503 7.95508,7.95703 0.918,0.612 1.52897,-0.61261 0.91797,-1.22461 -2.754,-2.754 -5.20239,-5.50836 -7.65039,-8.56836 1.224,-1.836 2.75351,-3.97845 3.97851,-5.81445 1.836,2.448 3.97974,5.20242 6.42774,6.73242 1.224,0.612 1.83459,0.61331 3.05859,-0.30469 0.307,-0.306 0.30664,-0.61261 0.30664,-1.22461 0,-0.306 3.6e-4,-0.30728 -0.30664,-0.61328 -0.306,-0.918 -1.52894,-0.918 -1.83594,0 0.307,-1.224 -3.3655,-4.89511 -5.8125,-7.03711 0.611,-0.918 1.22394,-1.83526 1.83594,-2.44726 1.224,1.53 2.75452,3.0592 3.97852,4.2832 1.225,1.224 2.14251,2.75455 3.97851,3.06055 0.306,0 0.61097,-6.4e-4 0.91797,-0.30664 l 0.30664,-0.30665 c 0.306,-0.306 0.306,-0.61196 0,-0.91796 l -0.30664,-0.30469 c -0.307,-0.306 -0.91761,-0.306 -1.22461,0 -0.306,-0.306 -0.61161,-0.91861 -1.22461,-1.22461 -0.918,-1.224 -1.83654,-2.14124 -3.06055,-3.36524 -0.918,-0.918 -1.52926,-1.83721 -2.44726,-2.4492099 0.612,-0.612 0.9173,-1.52863 1.5293,-2.14063 2.447,2.7539999 5.20236,5.2017799 8.56836,6.4257799 0.918,0.306 1.22432,-0.91925 0.61132,-1.53125 -2.754,-2.142 -5.50707,-3.9764699 -7.95507,-6.7304699 0.612,-0.918 1.22393,-1.53122 1.83593,-2.44922 2.142,1.83601 4.28247,3.36716 6.73047,4.28516 0.918,0.306 1.52897,-0.91794 0.91797,-1.83594 -1.836,-1.836 -3.6715,-3.36712 -5.8125,-5.20311996 0.612,-0.612 0.9173,-1.22394 1.5293,-1.83594004 2.142,1.53000004 3.97714,3.05985 6.11914,4.58984 1.224,0.612 2.4473,-0.91793 1.5293,-1.83593 -1.83601,-1.83599996 -3.9775,-3.36649 -5.8125,-4.89649 0.612,-0.612 1.22329,-1.22393 1.52929,-1.83593 2.447,1.53 5.20239,3.36648 7.65039,4.89648004 0.918,0.612 2.14261,-0.91794004 1.22461,-1.83594004 -2.448,-1.836 -4.59206,-3.67181 -7.03906,-5.50781 0.918,-0.918 1.83626,-2.1425501 2.44727,-3.0605501 1.836,1.2240001 3.67376,2.7551601 5.50976,4.2851601 0.918,0.612 1.83661,-0.30661 1.22461,-1.22461 -1.53,-1.836 -3.36581,-3.0592001 -5.50781,-4.2832001 0.918,-1.224 2.14123,-2.14255 3.36523,-3.06055 0,0.612 0.30633,1.2233 0.61133,1.5293 3.979,3.06 8.2622,5.5090601 13.1582,7.0390601 1.529,0.612 2.75366,-1.83591 1.22266,-2.75391 -4.283,-2.4480001 -8.56592,-4.5897501 -12.54492,-7.3437501 h -0.61133 c 1.224,-1.224 2.75452,-2.14254 3.97851,-3.06054 3.67201,2.754 7.64991,5.81372 11.62891,8.26171 h 0.61133 c 0,0.30601 -3.6e-4,0.30533 0.30664,0.61133 3.365,3.6720001 6.7323,7.0383001 10.4043,10.40430014 1.836,1.53 4.58975,5.20247996 7.34375,4.89647996 0.611,0 1.22265,-0.30596 1.22265,-0.91796 l 1.22461,-0.61133 c 0.307,-0.612 -3.3e-4,-1.22525 -0.61133,-1.53125 l -0.30664,-0.30663996 c -0.307,0 -0.30732,-0.306 -0.61132,0 -0.307,-0.306 -0.30697,-0.30597 -0.91797,-0.91797 -0.918,-0.612 -1.53122,-1.52863004 -2.44922,-2.14063004 -1.223,-1.224 -2.44688,-2.14318 -3.67188,-3.36718 -2.754,-2.754 -5.50772,-5.2017201 -8.26172,-8.2617201 -0.611,-0.612 -1.22293,-0.61069 -1.83593,-0.30469 -3.365,-2.754 -7.0373,-5.20303 -10.4043,-7.95703 0.918,-0.612 2.14255,-0.91861 3.06055,-1.22461 4.896,3.366 9.79473,6.42636 15.30273,8.56836 -0.307,0.612 -0.613,1.22394 0,1.83594 5.201,4.8960001 10.40208,10.7108101 16.83008,14.3828101 0.918,0.612 2.44694,-0.61193996 1.83594,-1.83593996 -4.285,-5.81400004 -11.01971,-10.09814014 -16.22071,-14.99414014 -0.307,-0.306 -0.60937,-0.30664 -0.60937,-0.30664 0,-0.306 -0.002,-0.91666 -0.3086,-1.22266 -4.58999,-2.448 -9.48553,-4.89703 -13.76953,-7.95703 1.836,-0.612 3.97714,-0.91797 6.11914,-0.91797 z"
     sodipodi:nodetypes="cccccccscccccccccccccccccccccccsccccccccccccccscccccccccccccccccccccssccccccccccccccccccccccccccccccccccccccccccccccccccccccccccccccccccccccccccccccccsccccccccccccccccccccccccccccccccccccccccccccccccccccccccccccccccccc" /><path
     inkscape:connector-curvature="0"
     id="path28"
     d="m 159.92507,17.791815 c -2.448,0.306 -6.732,-4.896 -8.568,-6.732 -2.142,-2.1419999 -4.284,-4.2839999 -6.426,-6.4259999 -1.224,-1.224 -3.366,0.612 -2.143,2.142 3.673,3.6719999 7.345,7.3439999 11.322,11.0159999 1.836,1.53 3.672,3.978 6.426,2.448 0.919,-0.612 0.613,-2.448 -0.611,-2.448 z" /><path
     inkscape:connector-curvature="0"
     id="path30"
     d="m 167.57607,17.485815 c -4.59,-6.732 -11.017,-12.2399999 -17.749,-16.52399986 -1.224,-0.612 -2.142,0.91799996 -0.918,1.83599996 6.732,4.59 11.935,10.0979999 17.138,16.2179999 0.611,0.612 2.14,-0.612 1.529,-1.53 z" /><path
     inkscape:connector-curvature="0"
     id="path32"
     d="m 173.08307,10.141815 c -3.061,-1.8359999 -5.508,-4.8959999 -8.262,-7.3439999 -2.447,-2.44799996 -5.203,-4.896 -7.65,-7.344 -1.225,-1.224 -3.061,0.612 -1.836,1.836 3.06,3.06000004 6.119,6.12 9.18,9.486 2.449,2.448 4.285,4.8959999 7.957,5.2019999 0.918,0.306 1.836,-1.224 0.611,-1.836 z" /><path
     inkscape:connector-curvature="0"
     id="path34"
     d="m 180.12107,6.7758151 c -1.223,0.612 -12.852,-11.628 -14.074,-12.852 -1.836,-1.836 -4.285,0.918 -2.754,2.754 1.836,2.142 15.91,17.7479999 18.666,11.934 0.611,-0.918 -0.307,-2.448 -1.838,-1.836 z" /><path
     inkscape:connector-curvature="0"
     id="path36-2"
     d="m 201.54207,-3.6281849 c -5.51,-5.202 -12.547,-9.4860001 -18.666,-14.0760001 -1.225,-0.918 -2.449,0.918 -1.531,1.836 5.814,4.896 11.629,10.4040001 18.359,14.3820001 1.532,0.91800004 3.061,-0.918 1.838,-2.142 z" /><path
     inkscape:connector-curvature="0"
     id="path38"
     d="m 158.70107,55.123815 c -0.306,-0.612 -1.529,-0.612 -1.529,0.306 -5.202,-4.59 -10.404,-9.18 -15.301,-14.076 -0.611,-0.612 -1.529,0.306 -0.918,0.918 5.202,5.508 10.404,11.017 15.912,15.912002 0.612,0.612 1.53,0.306 1.836,-0.306 0.612,-1.224 0.612,-1.53 0,-2.754002 z" /><path
     inkscape:connector-curvature="0"
     id="path40"
     d="m 162.67907,52.369815 c -2.448,-2.448 -5.508,-4.284 -7.956,-6.732 -2.754,-2.754 -5.202,-5.814 -7.65,-8.874 -0.611,-0.918 -2.142,0 -1.529,0.918 3.672,6.12 9.485,13.158 15.911,16.218 0.919,0.612 2.142,-0.612 1.224,-1.53 z" /><path
     inkscape:connector-curvature="0"
     id="path42-0"
     d="m 159.00707,60.937817 c -3.366,-0.306 -6.732,-4.59 -8.874,-7.038002 -2.143,-2.142 -4.59,-4.59 -6.732,-6.732 -0.611,-0.612 -1.224,0.306 -0.918,0.918 3.061,3.672 6.426,7.038 9.486,10.710002 1.836,2.142 3.672,4.284 6.731,3.978 1.531,0 1.225,-1.531 0.307,-1.836 z" /><path
     inkscape:connector-curvature="0"
     id="path44"
     d="m 179.50907,36.151815 c -6.732,-4.59 -13.158,-9.18 -18.36,-15.606 -0.612,-0.918 -2.142,0.306 -1.53,1.224 4.896,6.426 11.322,12.852 18.666,16.218 1.531,0.306 2.449,-0.918 1.224,-1.836 z" /><path
     inkscape:connector-curvature="0"
     id="path46"
     d="m 184.09907,34.621815 c -1.223,0.612 -7.037,-6.426 -7.955,-7.344 -2.449,-2.448 -4.896,-4.896 -7.344,-7.344 -0.918,-0.918 -2.754,0.612 -1.531,1.53 l 10.098,10.404 c 1.836,1.836 3.672,4.896 6.732,5.202 0.307,0 0.918,-0.306 1.225,-0.612 0,-0.306 0.307,-0.306 0.307,-0.612 -0.001,-0.612 -0.614,-1.53 -1.532,-1.224 z" /><path
     inkscape:connector-curvature="0"
     id="path48-5"
     d="m 193.27907,28.195815 c -0.611,-1.53 -3.059,-0.918 -2.447,0.612 0,0.306 0,0.612 0,0.918 -5.814,-3.366 -11.016,-7.344 -15.605,-12.24 -1.225,-1.224 -3.367,0.612 -2.143,2.142 5.508,5.508 11.629,10.404 18.359,14.382 0.918,0.612 2.143,0 2.449,-0.918 0,-2.142 0,-3.366 -0.613,-4.896 z" /><path
     inkscape:connector-curvature="0"
     id="path50"
     d="m 198.78707,26.359815 c -5.508,-5.814 -12.238,-11.016 -18.359,-16.218 -1.529,-1.2239999 -3.979,0.918 -2.143,2.142 6.121,5.508 12.24,11.322 19.279,15.912 0.918,1.224 2.141,-0.612 1.223,-1.836 z" /><path
     inkscape:connector-curvature="0"
     id="path52"
     d="m 204.29607,20.851815 c -5.203,-4.59 -10.1,-9.18 -14.994,-14.0759999 -1.836,-1.53 -4.285,0.918 -2.449,2.448 5.508,5.2019999 11.016,10.7099999 16.83,15.6059999 0.918,0.918 2.754,0.612 3.061,-0.918 0,-0.918 0.307,-1.53 0.307,-2.448 -0.307,-0.918 -1.837,-1.224 -2.755,-0.612 z" /><path
     inkscape:connector-curvature="0"
     id="path54-8"
     d="m 174.61307,78.990817 c -7.344,-2.447 -14.076,-5.508 -19.89,-10.098 -1.224,-0.918 -2.754,0.612 -1.53,1.53 6.12,4.896 13.158,9.18 21.115,10.403 0.918,0.001 1.223,-1.528 0.305,-1.835 z" /><path
     inkscape:connector-curvature="0"
     id="path56"
     d="m 179.20307,78.685817 c -5.508,-4.896 -11.627,-8.874 -17.135,-13.77 -0.613,-0.612 -1.225,0.306 -0.919,0.918 5.202,4.896 10.71,10.71 16.831,14.382 0.918,0.306 1.836,-0.918 1.223,-1.53 z" /><path
     inkscape:connector-curvature="0"
     id="path58"
     d="m 198.78707,55.123815 c -3.977,-4.896 -8.566,-8.568 -11.627,-14.076 -0.307,-0.612 -1.225,0 -0.918,0.612 2.754,5.202 6.732,11.322 11.934,14.382002 0.306,0.612 0.917,-0.306 0.611,-0.918002 z" /></g></svg>